# xmcd
#
# Track frame offsets:
# 150
# 14488
# 27265
# 46662
# 61211
# 75249
# 89740
# 107484
# 121696
# 133988
# 147756
# 160135
# 180438
# 197019
#
# Disc length: 2842 seconds
#
#
# Revision: 0
# Processed by: cddbd v1.5.2PL0 Copyright (c) Steve Scherf et al.
# Submitted via: FreeRIP 2.96 
#
DISCID=ac0b180e
DTITLE=UM BARZINHO E UM VIOLÃO - CD2 - 
DYEAR=2009
DGENRE=Country
TTITLE0=MEU ENDEREÇO
TTITLE1=UM BEIJO PRA ME ENLOUQUECER
TTITLE2=EVIDÊNCIAS
TTITLE3=SAUDADE DA MINHA TERRA
TTITLE4=TELEFONE MAIS
TTITLE5=DO OUTRO LADO DA CIDADE
TTITLE6=COMITIVA ESPERANÇA
TTITLE7=CHEIRO DE RELVA
TTITLE8=OITO SEGUNDOS
TTITLE9=UM HOMEM QUE CHORA A TOA
TTITLE10=CASA NO CAMPO
TTITLE11=PEÃO
TTITLE12=TEMPORAL DE AMOR
TTITLE13=SAUDADE
EXTD=
EXTT0=
EXTT1=
EXTT2=
EXTT3=
EXTT4=
EXTT5=
EXTT6=
EXTT7=
EXTT8=
EXTT9=
EXTT10=
EXTT11=
EXTT12=
EXTT13=
PLAYORDER=
